<svg width="20" height="21" viewBox="0 0 20 21" fill="none" xmlns="http://www.w3.org/2000/svg">
<g id="carbon:phone-filled">
<path id="Vector" d="M12.7063 14.1609L14.1063 12.7609C14.2948 12.5746 14.5334 12.4472 14.793 12.3939C15.0526 12.3407 15.3221 12.3639 15.5688 12.4609L17.275 13.1421C17.5243 13.2433 17.738 13.416 17.8893 13.6384C18.0405 13.8609 18.1226 14.1231 18.125 14.3921V17.5171C18.1236 17.7001 18.0851 17.8809 18.0119 18.0486C17.9388 18.2164 17.8324 18.3675 17.6993 18.4931C17.5662 18.6186 17.409 18.7159 17.2373 18.7791C17.0655 18.8423 16.8828 18.8701 16.7 18.8609C4.74377 18.1171 2.33127 7.99211 1.87502 4.11712C1.85384 3.92683 1.87319 3.73421 1.9318 3.55193C1.99041 3.36966 2.08695 3.20186 2.21506 3.05958C2.34318 2.91729 2.49997 2.80374 2.67512 2.72641C2.85027 2.64907 3.03981 2.60969 3.23127 2.61087H6.25002C6.5194 2.61166 6.78239 2.69303 7.00514 2.84451C7.2279 2.99598 7.40025 3.21064 7.50002 3.46087L8.18127 5.16712C8.28143 5.41278 8.30698 5.68252 8.25474 5.94262C8.2025 6.20273 8.07477 6.44167 7.88752 6.62962L6.48752 8.02961C6.48752 8.02961 7.29377 13.4859 12.7063 14.1609Z" fill="black"/>
</g>
</svg>
