<svg width="20" height="21" viewBox="0 0 20 21" fill="none" xmlns="http://www.w3.org/2000/svg">
<g id="fluent:mail-20-filled">
<g id="Group">
<path id="Vector" d="M18 8.10884V15.2358C18 15.8989 17.7366 16.5348 17.2678 17.0036C16.7989 17.4724 16.163 17.7358 15.5 17.7358H4.5C3.83696 17.7358 3.20107 17.4724 2.73223 17.0036C2.26339 16.5348 2 15.8989 2 15.2358V8.10884L9.746 12.6668C9.82295 12.7122 9.91066 12.7362 10 12.7362C10.0893 12.7362 10.177 12.7122 10.254 12.6668L18 8.10884ZM15.5 4.73584C16.1151 4.73574 16.7087 4.96245 17.1672 5.37258C17.6257 5.78271 17.9168 6.34748 17.985 6.95884L10 11.6558L2.015 6.95884C2.08316 6.34748 2.37432 5.78271 2.83279 5.37258C3.29127 4.96245 3.88485 4.73574 4.5 4.73584H15.5Z" fill="black"/>
</g>
</g>
</svg>
